<svg id="visual" viewBox="0 0 900 600" width="900" height="600" xmlns="http://www.w3.org/2000/svg" xmlns:xlink="http://www.w3.org/1999/xlink" version="1.1"><rect x="0" y="0" width="900" height="600" fill="#FFFFFF"></rect><path d="M0 423L21.5 433.2C43 443.3 86 463.7 128.8 478C171.7 492.3 214.3 500.7 257.2 493.2C300 485.7 343 462.3 385.8 447.7C428.7 433 471.3 427 514.2 427C557 427 600 433 642.8 447.3C685.7 461.7 728.3 484.3 771.2 485.3C814 486.3 857 465.7 878.5 455.3L900 445L900 601L878.5 601C857 601 814 601 771.2 601C728.3 601 685.7 601 642.8 601C600 601 557 601 514.2 601C471.3 601 428.7 601 385.8 601C343 601 300 601 257.2 601C214.3 601 171.7 601 128.8 601C86 601 43 601 21.5 601L0 601Z" fill="#945cf2" stroke-linecap="round" stroke-linejoin="miter"></path></svg>