<svg id="visual" viewBox="0 0 600 900" width="600" height="900" xmlns="http://www.w3.org/2000/svg" xmlns:xlink="http://www.w3.org/1999/xlink" version="1.1"><rect x="0" y="0" width="600" height="900" fill="#FFFFFF"></rect><path d="M0 243L14.3 260.5C28.7 278 57.3 313 85.8 342.7C114.3 372.3 142.7 396.7 171.2 381.7C199.7 366.7 228.3 312.3 257 303.7C285.7 295 314.3 332 343 357.2C371.7 382.3 400.3 395.7 428.8 394.8C457.3 394 485.7 379 514.2 346C542.7 313 571.3 262 585.7 236.5L600 211L600 0L585.7 0C571.3 0 542.7 0 514.2 0C485.7 0 457.3 0 428.8 0C400.3 0 371.7 0 343 0C314.3 0 285.7 0 257 0C228.3 0 199.7 0 171.2 0C142.7 0 114.3 0 85.8 0C57.3 0 28.7 0 14.3 0L0 0Z" fill="#945cf2" stroke-linecap="round" stroke-linejoin="miter"></path></svg>