<?xml version="1.0" standalone="no"?>
<!DOCTYPE svg PUBLIC "-//W3C//DTD SVG 20010904//EN"
 "http://www.w3.org/TR/2001/REC-SVG-20010904/DTD/svg10.dtd">
<svg version="1.0" xmlns="http://www.w3.org/2000/svg"
 width="500.000000pt" height="500.000000pt" viewBox="0 0 500.000000 500.000000"
 preserveAspectRatio="xMidYMid meet">

<g transform="translate(0.000000,500.000000) scale(0.100000,-0.100000)"
fill="#000000" stroke="none">
<path d="M768 2682 c-17 -3 -18 -23 -18 -248 l0 -244 24 -6 c57 -14 61 -7 64
104 l3 102 49 0 50 0 0 -93 c0 -104 6 -117 57 -117 l33 0 0 199 c0 109 -3 219
-6 245 -7 51 -30 72 -64 61 -18 -6 -20 -16 -20 -111 l0 -104 -49 0 c-46 0 -49
1 -55 31 -3 17 -6 59 -6 93 0 78 -15 99 -62 88z"/>
<path d="M1188 2683 c-18 -3 -30 -12 -33 -26 -18 -78 -75 -453 -71 -464 3 -8
21 -13 45 -13 39 0 39 0 45 48 17 118 14 112 61 112 48 0 49 -1 61 -85 8 -63
18 -75 60 -75 21 0 34 5 34 13 0 45 -84 474 -95 485 -6 7 -79 10 -107 5z m71
-266 c-4 -5 -17 -6 -29 -2 -21 7 -22 11 -16 63 13 110 19 114 36 27 9 -44 13
-84 9 -88z"/>
<path d="M1658 2683 l-48 -4 0 -243 c0 -265 -2 -256 56 -256 24 0 24 1 24 96
l0 95 27 -3 c22 -3 31 -14 60 -83 19 -44 41 -86 50 -92 18 -14 83 -18 83 -5 0
4 -20 52 -44 107 -43 98 -44 100 -26 120 28 30 40 70 40 128 0 114 -62 152
-222 140z m122 -99 c26 -66 -2 -124 -60 -124 l-30 0 0 68 c0 38 3 72 7 75 3 4
21 7 40 7 27 0 35 -5 43 -26z"/>
<path d="M2037 2683 c-4 -3 -7 -113 -7 -244 l0 -237 78 -7 c155 -14 232 35
232 147 0 24 -8 59 -18 78 -15 30 -15 40 -5 70 15 42 8 123 -13 155 -8 13 -29
28 -46 34 -34 12 -210 15 -221 4z m183 -82 c14 -28 12 -87 -4 -100 -7 -6 -31
-12 -52 -14 l-39 -2 -3 54 c-4 73 0 81 47 81 30 0 43 -5 51 -19z m16 -204 c11
-11 7 -97 -6 -112 -8 -10 -29 -15 -61 -15 l-49 0 0 64 c0 42 4 66 13 70 14 6
95 1 103 -7z"/>
<path d="M2458 2673 c-49 -31 -63 -82 -63 -233 0 -169 12 -201 81 -232 37 -16
59 -19 103 -15 112 12 143 70 138 267 -4 191 -32 230 -164 230 -46 0 -77 -6
-95 -17z m152 -62 c5 -11 10 -84 10 -165 0 -133 -2 -148 -20 -166 -12 -12 -33
-20 -55 -20 -50 0 -57 25 -53 193 3 132 4 140 27 158 31 25 77 25 91 0z"/>
<path d="M2844 2671 c-50 -31 -69 -93 -68 -226 0 -130 14 -184 54 -218 59 -50
172 -47 226 7 24 24 34 45 43 97 23 134 6 271 -39 323 -26 29 -33 31 -107 34
-64 2 -84 -1 -109 -17z m156 -82 c7 -24 10 -95 8 -166 -3 -117 -4 -126 -27
-144 -13 -10 -38 -19 -57 -19 -28 0 -35 4 -41 28 -10 35 -10 259 -1 293 8 29
39 47 80 48 24 1 29 -4 38 -40z"/>
<path d="M3167 2684 c-4 -4 -7 -112 -7 -240 0 -220 1 -234 19 -244 11 -5 31
-10 45 -10 l26 0 -1 198 c0 108 -4 220 -7 247 -7 47 -9 50 -37 53 -17 2 -34 0
-38 -4z"/>
<path d="M3373 2678 c-5 -7 -31 -59 -58 -115 l-48 -102 59 -127 c61 -132 72
-144 135 -144 16 0 29 3 29 6 0 4 -29 67 -65 141 l-64 135 49 99 c28 54 50
103 50 109 0 14 -76 12 -87 -2z"/>
<path d="M3858 2684 c-5 -4 -8 -112 -8 -240 0 -220 1 -234 19 -244 11 -5 29
-10 40 -10 19 0 20 7 23 98 3 95 4 97 27 97 21 0 29 -13 63 -92 40 -93 50
-103 106 -103 12 0 22 4 22 9 0 4 -20 53 -44 107 l-44 99 24 28 c46 55 46 179
0 225 -24 25 -34 27 -124 30 -53 2 -100 0 -104 -4z m160 -76 c7 -7 12 -33 12
-59 0 -54 -23 -79 -72 -79 -28 0 -28 0 -28 68 0 38 3 72 7 75 11 12 68 8 81
-5z"/>
<path d="M3542 2443 l3 -238 125 0 125 0 0 35 0 35 -82 3 -83 3 0 69 0 69 73
3 72 3 0 30 0 30 -71 3 -71 3 -7 46 c-10 76 -14 72 77 75 l82 3 3 33 3 32
-126 0 -125 0 2 -237z"/>
<path d="M1440 2420 l0 -240 68 2 67 1 -50 7 c-52 6 -46 16 15 23 33 4 32 4
-7 5 -24 1 -43 7 -43 12 0 6 19 11 43 12 l42 1 -40 4 c-61 6 -67 23 -9 25 47
1 47 2 9 5 -60 6 -68 23 -10 23 58 0 50 17 -10 23 l-40 4 43 1 c55 2 55 22 0
22 -52 0 -40 17 17 23 38 3 38 4 -9 5 -58 2 -52 19 9 25 38 3 38 4 -9 5 -58 2
-52 19 9 25 l40 4 -42 1 c-60 3 -65 22 -6 24 47 1 47 1 8 5 -61 6 -67 23 -9
25 47 1 47 2 9 5 -60 6 -68 23 -11 23 29 0 45 4 41 10 -3 6 -25 10 -48 10 -51
0 -38 17 18 23 38 3 38 4 -9 5 -58 2 -52 19 9 25 38 3 38 4 -9 5 -58 2 -52 19
9 25 l40 4 -42 1 c-24 1 -43 6 -43 11 0 6 19 12 43 14 30 2 23 4 -25 5 l-68 2
0 -240z"/>
<path d="M4049 2116 c-8 -8 -208 -14 -624 -20 -378 -6 -926 -16 -1095 -21 -63
-2 -227 -6 -365 -9 -137 -3 -349 -10 -470 -16 -121 -5 -327 -15 -458 -21 -219
-10 -319 -24 -290 -42 5 -3 167 -9 359 -12 377 -7 2353 -18 2650 -15 149 1
187 -1 212 -14 39 -20 46 -20 38 0 -4 9 -2 13 5 8 16 -10 194 -14 227 -5 15 4
33 19 40 34 7 15 18 27 23 27 6 0 6 8 -1 20 -6 11 -9 24 -6 29 8 13 -233 68
-245 57z"/>
</g>
</svg>
